<mxfile host="app.diagrams.net" modified="2022-06-16T22:51:50.425Z" agent="5.0 (Windows NT 10.0; Win64; x64) AppleWebKit/537.36 (KHTML, like Gecko) Chrome/102.0.0.0 Safari/537.36" etag="a3uCYy6LU3ijiomqXMj2" version="19.0.3" type="github">
  <diagram id="xBJ6RIBi5SQOp9k9MybP" name="Page-1">
    <mxGraphModel dx="950" dy="482" grid="1" gridSize="10" guides="1" tooltips="1" connect="1" arrows="1" fold="1" page="1" pageScale="1" pageWidth="827" pageHeight="1169" math="0" shadow="0">
      <root>
        <mxCell id="0" />
        <mxCell id="1" parent="0" />
        <mxCell id="zVArNFqmAzVrgOCEso5L-36" style="edgeStyle=orthogonalEdgeStyle;rounded=0;orthogonalLoop=1;jettySize=auto;html=1;exitX=0.5;exitY=1;exitDx=0;exitDy=0;entryX=0.613;entryY=-0.033;entryDx=0;entryDy=0;entryPerimeter=0;" edge="1" parent="1" source="zVArNFqmAzVrgOCEso5L-1" target="zVArNFqmAzVrgOCEso5L-2">
          <mxGeometry relative="1" as="geometry" />
        </mxCell>
        <mxCell id="zVArNFqmAzVrgOCEso5L-1" value="Início&lt;br&gt;" style="ellipse;whiteSpace=wrap;html=1;" vertex="1" parent="1">
          <mxGeometry x="70" y="50" width="120" height="80" as="geometry" />
        </mxCell>
        <mxCell id="zVArNFqmAzVrgOCEso5L-37" style="edgeStyle=orthogonalEdgeStyle;rounded=0;orthogonalLoop=1;jettySize=auto;html=1;exitX=0.5;exitY=1;exitDx=0;exitDy=0;exitPerimeter=0;entryX=0.5;entryY=0;entryDx=0;entryDy=0;" edge="1" parent="1" source="zVArNFqmAzVrgOCEso5L-2" target="zVArNFqmAzVrgOCEso5L-3">
          <mxGeometry relative="1" as="geometry" />
        </mxCell>
        <mxCell id="zVArNFqmAzVrgOCEso5L-2" value="Possui cadastro?" style="strokeWidth=2;html=1;shape=mxgraph.flowchart.display;whiteSpace=wrap;" vertex="1" parent="1">
          <mxGeometry x="40" y="160" width="150" height="60" as="geometry" />
        </mxCell>
        <mxCell id="zVArNFqmAzVrgOCEso5L-38" style="edgeStyle=orthogonalEdgeStyle;rounded=0;orthogonalLoop=1;jettySize=auto;html=1;exitX=0.5;exitY=1;exitDx=0;exitDy=0;entryX=0.593;entryY=-0.067;entryDx=0;entryDy=0;entryPerimeter=0;" edge="1" parent="1" source="zVArNFqmAzVrgOCEso5L-3" target="zVArNFqmAzVrgOCEso5L-5">
          <mxGeometry relative="1" as="geometry" />
        </mxCell>
        <mxCell id="zVArNFqmAzVrgOCEso5L-54" style="edgeStyle=orthogonalEdgeStyle;rounded=0;orthogonalLoop=1;jettySize=auto;html=1;exitX=1;exitY=0.5;exitDx=0;exitDy=0;entryX=0;entryY=0.5;entryDx=0;entryDy=0;entryPerimeter=0;" edge="1" parent="1" source="zVArNFqmAzVrgOCEso5L-3" target="zVArNFqmAzVrgOCEso5L-4">
          <mxGeometry relative="1" as="geometry" />
        </mxCell>
        <mxCell id="zVArNFqmAzVrgOCEso5L-3" value="Sim ou não" style="rhombus;whiteSpace=wrap;html=1;" vertex="1" parent="1">
          <mxGeometry x="80" y="250" width="95" height="90" as="geometry" />
        </mxCell>
        <mxCell id="zVArNFqmAzVrgOCEso5L-55" style="edgeStyle=orthogonalEdgeStyle;rounded=0;orthogonalLoop=1;jettySize=auto;html=1;exitX=1;exitY=0.5;exitDx=0;exitDy=0;exitPerimeter=0;entryX=0;entryY=0.5;entryDx=0;entryDy=0;" edge="1" parent="1" source="zVArNFqmAzVrgOCEso5L-4" target="zVArNFqmAzVrgOCEso5L-10">
          <mxGeometry relative="1" as="geometry" />
        </mxCell>
        <mxCell id="zVArNFqmAzVrgOCEso5L-4" value="Fazer Login" style="strokeWidth=2;html=1;shape=mxgraph.flowchart.display;whiteSpace=wrap;" vertex="1" parent="1">
          <mxGeometry x="240" y="265" width="150" height="60" as="geometry" />
        </mxCell>
        <mxCell id="zVArNFqmAzVrgOCEso5L-39" style="edgeStyle=orthogonalEdgeStyle;rounded=0;orthogonalLoop=1;jettySize=auto;html=1;exitX=0.5;exitY=1;exitDx=0;exitDy=0;exitPerimeter=0;entryX=0.567;entryY=0.125;entryDx=0;entryDy=0;entryPerimeter=0;" edge="1" parent="1" source="zVArNFqmAzVrgOCEso5L-5" target="zVArNFqmAzVrgOCEso5L-9">
          <mxGeometry relative="1" as="geometry" />
        </mxCell>
        <mxCell id="zVArNFqmAzVrgOCEso5L-5" value="Fazer cadastro" style="strokeWidth=2;html=1;shape=mxgraph.flowchart.display;whiteSpace=wrap;" vertex="1" parent="1">
          <mxGeometry x="40" y="370" width="150" height="60" as="geometry" />
        </mxCell>
        <mxCell id="zVArNFqmAzVrgOCEso5L-41" style="edgeStyle=orthogonalEdgeStyle;rounded=0;orthogonalLoop=1;jettySize=auto;html=1;exitX=0.5;exitY=1;exitDx=0;exitDy=0;entryX=0.5;entryY=0;entryDx=0;entryDy=0;" edge="1" parent="1" source="zVArNFqmAzVrgOCEso5L-9" target="zVArNFqmAzVrgOCEso5L-19">
          <mxGeometry relative="1" as="geometry" />
        </mxCell>
        <mxCell id="zVArNFqmAzVrgOCEso5L-9" value="Dados do cadastro" style="html=1;strokeWidth=2;shape=manualInput;whiteSpace=wrap;rounded=1;size=26;arcSize=11;" vertex="1" parent="1">
          <mxGeometry x="62.5" y="450" width="105" height="80" as="geometry" />
        </mxCell>
        <mxCell id="zVArNFqmAzVrgOCEso5L-56" style="edgeStyle=orthogonalEdgeStyle;rounded=0;orthogonalLoop=1;jettySize=auto;html=1;exitX=1;exitY=0.5;exitDx=0;exitDy=0;entryX=0;entryY=0.5;entryDx=0;entryDy=0;" edge="1" parent="1" source="zVArNFqmAzVrgOCEso5L-10" target="zVArNFqmAzVrgOCEso5L-13">
          <mxGeometry relative="1" as="geometry" />
        </mxCell>
        <mxCell id="zVArNFqmAzVrgOCEso5L-10" value="Dados do login" style="html=1;strokeWidth=2;shape=manualInput;whiteSpace=wrap;rounded=1;size=26;arcSize=11;" vertex="1" parent="1">
          <mxGeometry x="440" y="255" width="105" height="80" as="geometry" />
        </mxCell>
        <mxCell id="zVArNFqmAzVrgOCEso5L-57" style="edgeStyle=orthogonalEdgeStyle;rounded=0;orthogonalLoop=1;jettySize=auto;html=1;exitX=1;exitY=0.5;exitDx=0;exitDy=0;entryX=0;entryY=0.5;entryDx=0;entryDy=0;" edge="1" parent="1" source="zVArNFqmAzVrgOCEso5L-13" target="zVArNFqmAzVrgOCEso5L-14">
          <mxGeometry relative="1" as="geometry" />
        </mxCell>
        <mxCell id="zVArNFqmAzVrgOCEso5L-58" style="edgeStyle=orthogonalEdgeStyle;rounded=0;orthogonalLoop=1;jettySize=auto;html=1;exitX=0.5;exitY=1;exitDx=0;exitDy=0;entryX=0.5;entryY=0;entryDx=0;entryDy=0;" edge="1" parent="1" source="zVArNFqmAzVrgOCEso5L-13" target="zVArNFqmAzVrgOCEso5L-21">
          <mxGeometry relative="1" as="geometry" />
        </mxCell>
        <mxCell id="zVArNFqmAzVrgOCEso5L-13" value="É um palestrante?" style="rhombus;whiteSpace=wrap;html=1;" vertex="1" parent="1">
          <mxGeometry x="590" y="250" width="95" height="90" as="geometry" />
        </mxCell>
        <mxCell id="zVArNFqmAzVrgOCEso5L-64" style="edgeStyle=orthogonalEdgeStyle;rounded=0;orthogonalLoop=1;jettySize=auto;html=1;exitX=1;exitY=0.5;exitDx=0;exitDy=0;entryX=0.5;entryY=0;entryDx=0;entryDy=0;" edge="1" parent="1" source="zVArNFqmAzVrgOCEso5L-14" target="zVArNFqmAzVrgOCEso5L-16">
          <mxGeometry relative="1" as="geometry" />
        </mxCell>
        <mxCell id="zVArNFqmAzVrgOCEso5L-14" value="Adicionar à lista de palestrantes&amp;nbsp;" style="whiteSpace=wrap;html=1;" vertex="1" parent="1">
          <mxGeometry x="760" y="265" width="120" height="60" as="geometry" />
        </mxCell>
        <mxCell id="zVArNFqmAzVrgOCEso5L-48" style="edgeStyle=orthogonalEdgeStyle;rounded=0;orthogonalLoop=1;jettySize=auto;html=1;exitX=0.5;exitY=1;exitDx=0;exitDy=0;entryX=0.5;entryY=0;entryDx=0;entryDy=0;" edge="1" parent="1" source="zVArNFqmAzVrgOCEso5L-15" target="zVArNFqmAzVrgOCEso5L-18">
          <mxGeometry relative="1" as="geometry">
            <mxPoint x="110" y="1210" as="targetPoint" />
          </mxGeometry>
        </mxCell>
        <mxCell id="zVArNFqmAzVrgOCEso5L-15" value="Verificar lista de participantes" style="whiteSpace=wrap;html=1;" vertex="1" parent="1">
          <mxGeometry x="55" y="1130" width="120" height="60" as="geometry" />
        </mxCell>
        <mxCell id="zVArNFqmAzVrgOCEso5L-16" value="Fim&lt;br&gt;" style="ellipse;whiteSpace=wrap;html=1;" vertex="1" parent="1">
          <mxGeometry x="970" y="735" width="120" height="80" as="geometry" />
        </mxCell>
        <mxCell id="zVArNFqmAzVrgOCEso5L-46" style="edgeStyle=orthogonalEdgeStyle;rounded=0;orthogonalLoop=1;jettySize=auto;html=1;exitX=0.5;exitY=1;exitDx=0;exitDy=0;entryX=0.5;entryY=0;entryDx=0;entryDy=0;" edge="1" parent="1" source="zVArNFqmAzVrgOCEso5L-17" target="zVArNFqmAzVrgOCEso5L-24">
          <mxGeometry relative="1" as="geometry" />
        </mxCell>
        <mxCell id="zVArNFqmAzVrgOCEso5L-51" style="edgeStyle=orthogonalEdgeStyle;rounded=0;orthogonalLoop=1;jettySize=auto;html=1;exitX=1;exitY=0.5;exitDx=0;exitDy=0;entryX=0;entryY=0.5;entryDx=0;entryDy=0;" edge="1" parent="1" source="zVArNFqmAzVrgOCEso5L-17" target="zVArNFqmAzVrgOCEso5L-25">
          <mxGeometry relative="1" as="geometry" />
        </mxCell>
        <mxCell id="zVArNFqmAzVrgOCEso5L-17" value="É um palestrante" style="whiteSpace=wrap;html=1;" vertex="1" parent="1">
          <mxGeometry x="55" y="940" width="120" height="60" as="geometry" />
        </mxCell>
        <mxCell id="zVArNFqmAzVrgOCEso5L-49" style="edgeStyle=orthogonalEdgeStyle;rounded=0;orthogonalLoop=1;jettySize=auto;html=1;exitX=0.5;exitY=1;exitDx=0;exitDy=0;entryX=0.5;entryY=0;entryDx=0;entryDy=0;" edge="1" parent="1" source="zVArNFqmAzVrgOCEso5L-18" target="zVArNFqmAzVrgOCEso5L-26">
          <mxGeometry relative="1" as="geometry" />
        </mxCell>
        <mxCell id="zVArNFqmAzVrgOCEso5L-50" style="edgeStyle=orthogonalEdgeStyle;rounded=0;orthogonalLoop=1;jettySize=auto;html=1;exitX=1;exitY=0.5;exitDx=0;exitDy=0;entryX=0;entryY=0.5;entryDx=0;entryDy=0;" edge="1" parent="1" source="zVArNFqmAzVrgOCEso5L-18" target="zVArNFqmAzVrgOCEso5L-34">
          <mxGeometry relative="1" as="geometry" />
        </mxCell>
        <mxCell id="zVArNFqmAzVrgOCEso5L-18" value="Inferior a 100?" style="rhombus;whiteSpace=wrap;html=1;" vertex="1" parent="1">
          <mxGeometry x="67.5" y="1210" width="95" height="90" as="geometry" />
        </mxCell>
        <mxCell id="zVArNFqmAzVrgOCEso5L-42" style="edgeStyle=orthogonalEdgeStyle;rounded=0;orthogonalLoop=1;jettySize=auto;html=1;exitX=0.5;exitY=1;exitDx=0;exitDy=0;entryX=0.5;entryY=0;entryDx=0;entryDy=0;" edge="1" parent="1" source="zVArNFqmAzVrgOCEso5L-19" target="zVArNFqmAzVrgOCEso5L-20">
          <mxGeometry relative="1" as="geometry" />
        </mxCell>
        <mxCell id="zVArNFqmAzVrgOCEso5L-19" value="Possui mais de 18 anos?" style="whiteSpace=wrap;html=1;" vertex="1" parent="1">
          <mxGeometry x="55" y="555" width="120" height="60" as="geometry" />
        </mxCell>
        <mxCell id="zVArNFqmAzVrgOCEso5L-43" style="edgeStyle=orthogonalEdgeStyle;rounded=0;orthogonalLoop=1;jettySize=auto;html=1;exitX=0.5;exitY=1;exitDx=0;exitDy=0;entryX=0.5;entryY=0;entryDx=0;entryDy=0;" edge="1" parent="1" source="zVArNFqmAzVrgOCEso5L-20" target="zVArNFqmAzVrgOCEso5L-30">
          <mxGeometry relative="1" as="geometry" />
        </mxCell>
        <mxCell id="zVArNFqmAzVrgOCEso5L-53" style="edgeStyle=orthogonalEdgeStyle;rounded=0;orthogonalLoop=1;jettySize=auto;html=1;exitX=1;exitY=0.5;exitDx=0;exitDy=0;entryX=0;entryY=0.5;entryDx=0;entryDy=0;" edge="1" parent="1" source="zVArNFqmAzVrgOCEso5L-20" target="zVArNFqmAzVrgOCEso5L-33">
          <mxGeometry relative="1" as="geometry" />
        </mxCell>
        <mxCell id="zVArNFqmAzVrgOCEso5L-20" value="Sim ou não" style="rhombus;whiteSpace=wrap;html=1;" vertex="1" parent="1">
          <mxGeometry x="67.5" y="630" width="95" height="90" as="geometry" />
        </mxCell>
        <mxCell id="zVArNFqmAzVrgOCEso5L-59" style="edgeStyle=orthogonalEdgeStyle;rounded=0;orthogonalLoop=1;jettySize=auto;html=1;exitX=0.5;exitY=1;exitDx=0;exitDy=0;entryX=0.5;entryY=0;entryDx=0;entryDy=0;" edge="1" parent="1" source="zVArNFqmAzVrgOCEso5L-21" target="zVArNFqmAzVrgOCEso5L-22">
          <mxGeometry relative="1" as="geometry" />
        </mxCell>
        <mxCell id="zVArNFqmAzVrgOCEso5L-21" value="&lt;span style=&quot;box-sizing: border-box; color: rgb(13, 37, 50); font-family: &amp;quot;Open Sans Hebrew&amp;quot;, &amp;quot;Open Sans&amp;quot;, sans-serif; font-size: 14px; text-align: start; background-color: rgb(255, 255, 255);&quot;&gt;data do evento é posterior a data atual&lt;/span&gt;" style="whiteSpace=wrap;html=1;" vertex="1" parent="1">
          <mxGeometry x="577.5" y="370" width="120" height="60" as="geometry" />
        </mxCell>
        <mxCell id="zVArNFqmAzVrgOCEso5L-60" style="edgeStyle=orthogonalEdgeStyle;rounded=0;orthogonalLoop=1;jettySize=auto;html=1;exitX=0.5;exitY=1;exitDx=0;exitDy=0;entryX=0.5;entryY=0;entryDx=0;entryDy=0;" edge="1" parent="1" source="zVArNFqmAzVrgOCEso5L-22" target="zVArNFqmAzVrgOCEso5L-27">
          <mxGeometry relative="1" as="geometry" />
        </mxCell>
        <mxCell id="zVArNFqmAzVrgOCEso5L-69" style="edgeStyle=orthogonalEdgeStyle;rounded=0;orthogonalLoop=1;jettySize=auto;html=1;exitX=1;exitY=0.5;exitDx=0;exitDy=0;entryX=0;entryY=0.5;entryDx=0;entryDy=0;" edge="1" parent="1" source="zVArNFqmAzVrgOCEso5L-22" target="zVArNFqmAzVrgOCEso5L-68">
          <mxGeometry relative="1" as="geometry" />
        </mxCell>
        <mxCell id="zVArNFqmAzVrgOCEso5L-22" value="Sim ou não" style="rhombus;whiteSpace=wrap;html=1;" vertex="1" parent="1">
          <mxGeometry x="590" y="445" width="95" height="90" as="geometry" />
        </mxCell>
        <mxCell id="zVArNFqmAzVrgOCEso5L-47" style="edgeStyle=orthogonalEdgeStyle;rounded=0;orthogonalLoop=1;jettySize=auto;html=1;exitX=0.5;exitY=1;exitDx=0;exitDy=0;entryX=0.5;entryY=0;entryDx=0;entryDy=0;" edge="1" parent="1" source="zVArNFqmAzVrgOCEso5L-24" target="zVArNFqmAzVrgOCEso5L-15">
          <mxGeometry relative="1" as="geometry" />
        </mxCell>
        <mxCell id="zVArNFqmAzVrgOCEso5L-24" value="Sim ou não" style="rhombus;whiteSpace=wrap;html=1;" vertex="1" parent="1">
          <mxGeometry x="67.5" y="1020" width="95" height="90" as="geometry" />
        </mxCell>
        <mxCell id="zVArNFqmAzVrgOCEso5L-73" style="edgeStyle=orthogonalEdgeStyle;rounded=0;orthogonalLoop=1;jettySize=auto;html=1;exitX=1;exitY=0.5;exitDx=0;exitDy=0;entryX=1;entryY=1;entryDx=0;entryDy=0;" edge="1" parent="1" source="zVArNFqmAzVrgOCEso5L-25" target="zVArNFqmAzVrgOCEso5L-16">
          <mxGeometry relative="1" as="geometry">
            <mxPoint x="1070" y="830" as="targetPoint" />
          </mxGeometry>
        </mxCell>
        <mxCell id="zVArNFqmAzVrgOCEso5L-25" value="Adicionar a lista de palestrantes" style="whiteSpace=wrap;html=1;" vertex="1" parent="1">
          <mxGeometry x="310" y="940" width="120" height="60" as="geometry" />
        </mxCell>
        <mxCell id="zVArNFqmAzVrgOCEso5L-75" style="edgeStyle=orthogonalEdgeStyle;rounded=0;orthogonalLoop=1;jettySize=auto;html=1;exitX=1;exitY=0.5;exitDx=0;exitDy=0;entryX=1;entryY=1;entryDx=0;entryDy=0;" edge="1" parent="1" source="zVArNFqmAzVrgOCEso5L-26" target="zVArNFqmAzVrgOCEso5L-16">
          <mxGeometry relative="1" as="geometry">
            <mxPoint x="1070" y="1260" as="targetPoint" />
          </mxGeometry>
        </mxCell>
        <mxCell id="zVArNFqmAzVrgOCEso5L-26" value="Permitir cadastro" style="whiteSpace=wrap;html=1;" vertex="1" parent="1">
          <mxGeometry x="55" y="1330" width="120" height="60" as="geometry" />
        </mxCell>
        <mxCell id="zVArNFqmAzVrgOCEso5L-61" style="edgeStyle=orthogonalEdgeStyle;rounded=0;orthogonalLoop=1;jettySize=auto;html=1;exitX=0.5;exitY=1;exitDx=0;exitDy=0;entryX=0.5;entryY=0;entryDx=0;entryDy=0;" edge="1" parent="1" source="zVArNFqmAzVrgOCEso5L-27" target="zVArNFqmAzVrgOCEso5L-28">
          <mxGeometry relative="1" as="geometry" />
        </mxCell>
        <mxCell id="zVArNFqmAzVrgOCEso5L-27" value="Verificar lista de participantes" style="whiteSpace=wrap;html=1;" vertex="1" parent="1">
          <mxGeometry x="577.5" y="555" width="120" height="60" as="geometry" />
        </mxCell>
        <mxCell id="zVArNFqmAzVrgOCEso5L-62" style="edgeStyle=orthogonalEdgeStyle;rounded=0;orthogonalLoop=1;jettySize=auto;html=1;exitX=0.5;exitY=1;exitDx=0;exitDy=0;entryX=0.5;entryY=0;entryDx=0;entryDy=0;" edge="1" parent="1" source="zVArNFqmAzVrgOCEso5L-28" target="zVArNFqmAzVrgOCEso5L-29">
          <mxGeometry relative="1" as="geometry" />
        </mxCell>
        <mxCell id="zVArNFqmAzVrgOCEso5L-63" style="edgeStyle=orthogonalEdgeStyle;rounded=0;orthogonalLoop=1;jettySize=auto;html=1;exitX=1;exitY=0.5;exitDx=0;exitDy=0;entryX=0;entryY=0.5;entryDx=0;entryDy=0;" edge="1" parent="1" source="zVArNFqmAzVrgOCEso5L-28" target="zVArNFqmAzVrgOCEso5L-35">
          <mxGeometry relative="1" as="geometry" />
        </mxCell>
        <mxCell id="zVArNFqmAzVrgOCEso5L-28" value="Inferior a 100?" style="rhombus;whiteSpace=wrap;html=1;" vertex="1" parent="1">
          <mxGeometry x="590" y="630" width="95" height="90" as="geometry" />
        </mxCell>
        <mxCell id="zVArNFqmAzVrgOCEso5L-67" style="edgeStyle=orthogonalEdgeStyle;rounded=0;orthogonalLoop=1;jettySize=auto;html=1;exitX=1;exitY=0.5;exitDx=0;exitDy=0;entryX=0;entryY=0.5;entryDx=0;entryDy=0;" edge="1" parent="1" source="zVArNFqmAzVrgOCEso5L-29" target="zVArNFqmAzVrgOCEso5L-16">
          <mxGeometry relative="1" as="geometry" />
        </mxCell>
        <mxCell id="zVArNFqmAzVrgOCEso5L-29" value="Permitir cadastro" style="whiteSpace=wrap;html=1;" vertex="1" parent="1">
          <mxGeometry x="577.5" y="745" width="120" height="60" as="geometry" />
        </mxCell>
        <mxCell id="zVArNFqmAzVrgOCEso5L-44" style="edgeStyle=orthogonalEdgeStyle;rounded=0;orthogonalLoop=1;jettySize=auto;html=1;exitX=0.5;exitY=1;exitDx=0;exitDy=0;entryX=0.5;entryY=0;entryDx=0;entryDy=0;" edge="1" parent="1" source="zVArNFqmAzVrgOCEso5L-30" target="zVArNFqmAzVrgOCEso5L-31">
          <mxGeometry relative="1" as="geometry" />
        </mxCell>
        <mxCell id="zVArNFqmAzVrgOCEso5L-30" value="&lt;span style=&quot;color: rgb(13, 37, 50); font-family: &amp;quot;Open Sans Hebrew&amp;quot;, &amp;quot;Open Sans&amp;quot;, sans-serif; font-size: 14px; text-align: start; background-color: rgb(255, 255, 255);&quot;&gt;data do evento é posterior a data atual&lt;/span&gt;" style="whiteSpace=wrap;html=1;" vertex="1" parent="1">
          <mxGeometry x="55" y="745" width="120" height="60" as="geometry" />
        </mxCell>
        <mxCell id="zVArNFqmAzVrgOCEso5L-45" style="edgeStyle=orthogonalEdgeStyle;rounded=0;orthogonalLoop=1;jettySize=auto;html=1;exitX=0.5;exitY=1;exitDx=0;exitDy=0;entryX=0.5;entryY=0;entryDx=0;entryDy=0;" edge="1" parent="1" source="zVArNFqmAzVrgOCEso5L-31" target="zVArNFqmAzVrgOCEso5L-17">
          <mxGeometry relative="1" as="geometry" />
        </mxCell>
        <mxCell id="zVArNFqmAzVrgOCEso5L-52" style="edgeStyle=orthogonalEdgeStyle;rounded=0;orthogonalLoop=1;jettySize=auto;html=1;exitX=1;exitY=0.5;exitDx=0;exitDy=0;entryX=0;entryY=0.5;entryDx=0;entryDy=0;" edge="1" parent="1" source="zVArNFqmAzVrgOCEso5L-31" target="zVArNFqmAzVrgOCEso5L-32">
          <mxGeometry relative="1" as="geometry" />
        </mxCell>
        <mxCell id="zVArNFqmAzVrgOCEso5L-31" value="Sim ou não" style="rhombus;whiteSpace=wrap;html=1;" vertex="1" parent="1">
          <mxGeometry x="67.5" y="825" width="95" height="90" as="geometry" />
        </mxCell>
        <mxCell id="zVArNFqmAzVrgOCEso5L-76" style="edgeStyle=orthogonalEdgeStyle;rounded=0;orthogonalLoop=1;jettySize=auto;html=1;exitX=1;exitY=0.5;exitDx=0;exitDy=0;entryX=0;entryY=1;entryDx=0;entryDy=0;" edge="1" parent="1" source="zVArNFqmAzVrgOCEso5L-32" target="zVArNFqmAzVrgOCEso5L-16">
          <mxGeometry relative="1" as="geometry">
            <mxPoint x="510" y="860" as="targetPoint" />
            <Array as="points">
              <mxPoint x="430" y="860" />
              <mxPoint x="988" y="860" />
            </Array>
          </mxGeometry>
        </mxCell>
        <mxCell id="zVArNFqmAzVrgOCEso5L-32" value="Data inválida" style="whiteSpace=wrap;html=1;" vertex="1" parent="1">
          <mxGeometry x="310" y="840" width="120" height="60" as="geometry" />
        </mxCell>
        <mxCell id="zVArNFqmAzVrgOCEso5L-71" style="edgeStyle=orthogonalEdgeStyle;rounded=0;orthogonalLoop=1;jettySize=auto;html=1;exitX=1;exitY=0.5;exitDx=0;exitDy=0;entryX=0;entryY=1;entryDx=0;entryDy=0;" edge="1" parent="1" source="zVArNFqmAzVrgOCEso5L-33" target="zVArNFqmAzVrgOCEso5L-16">
          <mxGeometry relative="1" as="geometry">
            <mxPoint x="1000" y="860" as="targetPoint" />
            <Array as="points">
              <mxPoint x="510" y="675" />
              <mxPoint x="510" y="860" />
              <mxPoint x="988" y="860" />
            </Array>
          </mxGeometry>
        </mxCell>
        <mxCell id="zVArNFqmAzVrgOCEso5L-33" value="Idade inválida" style="whiteSpace=wrap;html=1;" vertex="1" parent="1">
          <mxGeometry x="310" y="645" width="120" height="60" as="geometry" />
        </mxCell>
        <mxCell id="zVArNFqmAzVrgOCEso5L-74" style="edgeStyle=orthogonalEdgeStyle;rounded=0;orthogonalLoop=1;jettySize=auto;html=1;exitX=1;exitY=0.5;exitDx=0;exitDy=0;entryX=1;entryY=1;entryDx=0;entryDy=0;" edge="1" parent="1" source="zVArNFqmAzVrgOCEso5L-34" target="zVArNFqmAzVrgOCEso5L-16">
          <mxGeometry relative="1" as="geometry">
            <mxPoint x="1070" y="969" as="targetPoint" />
          </mxGeometry>
        </mxCell>
        <mxCell id="zVArNFqmAzVrgOCEso5L-34" value="Limite de participantes alcançado" style="whiteSpace=wrap;html=1;" vertex="1" parent="1">
          <mxGeometry x="310" y="1225" width="120" height="60" as="geometry" />
        </mxCell>
        <mxCell id="zVArNFqmAzVrgOCEso5L-66" style="edgeStyle=orthogonalEdgeStyle;rounded=0;orthogonalLoop=1;jettySize=auto;html=1;exitX=1;exitY=0.5;exitDx=0;exitDy=0;entryX=0.5;entryY=0;entryDx=0;entryDy=0;" edge="1" parent="1" source="zVArNFqmAzVrgOCEso5L-35" target="zVArNFqmAzVrgOCEso5L-16">
          <mxGeometry relative="1" as="geometry" />
        </mxCell>
        <mxCell id="zVArNFqmAzVrgOCEso5L-35" value="Limite de participantes alcançado" style="whiteSpace=wrap;html=1;" vertex="1" parent="1">
          <mxGeometry x="760" y="645" width="120" height="60" as="geometry" />
        </mxCell>
        <mxCell id="zVArNFqmAzVrgOCEso5L-70" style="edgeStyle=orthogonalEdgeStyle;rounded=0;orthogonalLoop=1;jettySize=auto;html=1;exitX=1;exitY=0.5;exitDx=0;exitDy=0;entryX=0.5;entryY=0;entryDx=0;entryDy=0;" edge="1" parent="1" source="zVArNFqmAzVrgOCEso5L-68" target="zVArNFqmAzVrgOCEso5L-16">
          <mxGeometry relative="1" as="geometry" />
        </mxCell>
        <mxCell id="zVArNFqmAzVrgOCEso5L-68" value="Data inválida" style="whiteSpace=wrap;html=1;" vertex="1" parent="1">
          <mxGeometry x="760" y="460" width="120" height="60" as="geometry" />
        </mxCell>
      </root>
    </mxGraphModel>
  </diagram>
</mxfile>
